<?xml version="1.0" encoding="UTF-8"?>
<svg id="Layer_1" xmlns="http://www.w3.org/2000/svg" version="1.1" viewBox="0 0 24 24">
  <!-- Generator: Adobe Illustrator 30.0.0, SVG Export Plug-In . SVG Version: 2.1.1 Build 123)  -->
  <defs>
    <style>
      .st0 {
        display: none;
      }

      .st1 {
        fill-rule: evenodd;
      }
    </style>
  </defs>
  <g class="st0">
    <path d="M23.26,3.92c-.27-1.44-1.07-2.58-2.08-2.97C19.35.25,12,.25,12,.25,12,.25,4.65.25,2.82.95c-1.01.39-1.81,1.52-2.08,2.97C.25,6.54.25,12,.25,12c0,0,0,5.46.49,8.08.27,1.44,1.07,2.58,2.08,2.97,1.83.7,9.18.7,9.18.7,0,0,7.35,0,9.18-.7,1.01-.39,1.81-1.52,2.08-2.97.49-2.62.49-8.08.49-8.08,0,0,0-5.46-.49-8.08ZM9.65,17.04V6.96l6.11,5.04-6.11,5.04Z"/>
  </g>
  <path class="st0" d="M18.67.15H5.33C2.47.15.15,2.47.15,5.33v13.35c0,2.85,2.32,5.17,5.17,5.17h13.35c2.85,0,5.17-2.32,5.17-5.17V5.33c0-2.85-2.32-5.17-5.17-5.17ZM22.63,18.67c0,2.18-1.77,3.95-3.95,3.95H5.33c-2.18,0-3.95-1.77-3.95-3.95V5.33c0-2.18,1.77-3.95,3.95-3.95h13.35c2.18,0,3.95,1.77,3.95,3.95v13.35ZM13.68,10.88l4.61-5.74c.21-.26.17-.65-.09-.86-.26-.21-.65-.17-.86.09l-4.44,5.53-4.44-5.53c-.12-.14-.29-.23-.48-.23h-3.6c-.23,0-.45.13-.55.35s-.07.46.07.65l6.41,7.99-4.61,5.74c-.21.26-.17.65.09.86.11.09.25.13.38.13.18,0,.36-.08.48-.23l4.44-5.53,4.44,5.53c.12.14.29.23.48.23h3.6c.34,0,.61-.27.61-.61,0-.16-.06-.3-.15-.41l-6.39-7.96ZM16.31,18.64L5.66,5.36h2.03l10.65,13.27h-2.03Z"/>
  <g class="st0">
    <path d="M6.7.06c-2.28.07-3.54.16-3.88.28-.16.05-.46.21-.68.36-.32.21-.48.38-.85.86-.37.49-.49.69-.68,1.18-.35.92-.43,1.43-.53,3.61C-.08,10.12,0,18.54.24,19.83c.28,1.58.93,2.76,1.91,3.45.66.46,1,.51,5.21.66,4.73.17,12.96-.02,13.84-.31,1.26-.43,2.24-1.85,2.58-3.78.31-1.7.31-13.84,0-15.73-.29-1.81-1.29-3.29-2.52-3.75-.42-.15-1.32-.22-4.32-.31-2.27-.07-7.83-.07-10.24,0ZM16.8,2.05c1.16.04,2.53.09,3.05.12l.94.06.35.23c.55.36,1.01,1.14,1.15,1.98.11.66.24,4.81.24,7.63,0,2.98-.14,6.86-.26,7.53-.15.81-.61,1.59-1.14,1.93-.28.18-.38.2-.93.24-3.63.29-13.19.29-16.45,0-.51-.05-.61-.08-.87-.25-.33-.22-.69-.67-.89-1.12-.25-.58-.31-.97-.39-2.75-.16-3.38-.08-12.03.13-13.21.2-1.15.89-2.04,1.69-2.19.26-.04,3.11-.17,4.9-.21,1.93-.05,6.68-.03,8.49.02Z"/>
    <path d="M9.7,11.96c0,3.35.01,6.1.03,6.1s1.55-1.37,3.4-3.05l3.38-3.04-.24-.23c-.53-.49-6.51-5.88-6.54-5.88-.01,0-.02,2.74-.02,6.1Z"/>
  </g>
  <g class="st0">
    <g>
      <path d="M4.09.23C2.25.56.8,1.89.3,3.7l-.12.47v15.68l.12.46c.46,1.65,1.73,2.93,3.4,3.39l.46.12h15.69l.46-.12c.25-.07.67-.24.92-.36,1.2-.6,2.1-1.71,2.47-3.03l.12-.46V4.17l-.12-.46c-.46-1.65-1.73-2.93-3.4-3.39l-.46-.12h-7.7c-6.32-.02-7.77-.01-8.06.04ZM19.42,1.13c.59.06,1,.18,1.47.42.67.36,1.2.89,1.56,1.56.25.47.37.88.42,1.47.06.67.06,14.15,0,14.82-.06.59-.18,1-.42,1.47-.36.67-.89,1.2-1.56,1.56-.47.25-.88.37-1.47.42-.67.06-14.16.06-14.83,0-.59-.06-1-.18-1.47-.42-.67-.36-1.2-.89-1.56-1.56-.25-.47-.37-.88-.42-1.47-.06-.67-.06-14.15,0-14.82.06-.59.18-1,.42-1.47.6-1.12,1.7-1.86,2.96-1.98.59-.05,14.32-.05,14.91,0Z"/>
      <path d="M5.34,4.01c-.14.03-.42.13-.62.23-.78.38-1.23,1.08-1.23,1.95,0,1.41,1.26,2.43,2.74,2.22,1.33-.19,2.18-1.36,1.92-2.62-.18-.84-.74-1.46-1.55-1.71-.28-.09-.93-.13-1.25-.07ZM6.12,4.93c.16.02.36.08.42.12.78.4.95,1.45.33,2.07-.29.3-.87.44-1.34.35-.36-.07-.56-.18-.78-.42-.24-.26-.31-.48-.31-.89,0-.64.42-1.11,1.09-1.22.14-.02.26-.04.27-.05.02,0,.16.02.32.04Z"/>
      <path d="M3.83,8.7c-.06.01-.15.07-.21.13l-.11.12v11.31l.11.11.11.11h2.07s2.07.02,2.07.02l.15-.14.15-.13v-5.59c.02-4.41.01-5.61-.04-5.7-.03-.06-.13-.15-.22-.19-.15-.07-.34-.08-2.08-.08-1.04,0-1.95.01-2,.02ZM7.28,14.61v4.97h-2.87v-9.93h2.87v4.97Z"/>
      <path d="M9.06,8.7c-.06.01-.16.08-.23.16l-.13.14v11.23l.13.12.12.13h2.08s2.07.02,2.07.02l.15-.14.15-.13.02-3.39c.02-2.28.04-3.43.08-3.53.26-.72.84-.99,1.61-.75.19.06.41.29.54.57l.11.23.02,3.43.02,3.44.15.13.15.14h2.07s2.07-.02,2.07-.02l.11-.11.11-.11v-3.68c0-4.03.01-3.91-.29-4.82-.57-1.75-1.96-2.88-3.79-3.05-.55-.05-1.25,0-1.7.12-.32.09-.89.34-1.09.48-.07.06-.14.1-.16.1-.01,0-.03-.1-.05-.22-.02-.17-.06-.26-.17-.36l-.12-.14h-1.97c-1.08-.01-2.02,0-2.07.01ZM12.48,10.22l.02.58.15.13c.11.1.19.13.33.13.16,0,.2-.03.51-.37.67-.75,1.39-1.06,2.45-1.06,1.61,0,2.84.85,3.35,2.34.28.81.28.8.3,4.35l.02,3.25h-2.88v-3.07c0-2.09-.02-3.15-.05-3.31-.24-1.1-1.07-1.72-2.23-1.64-.5.03-.85.17-1.16.45-.33.3-.51.58-.67,1.03l-.12.37v3.08s-.02,3.09-.02,3.09h-2.82v-9.93h2.81l.02.58Z"/>
    </g>
  </g>
  <g class="st0">
    <path d="M16.51,23.76H7.49c-4,0-7.25-3.25-7.25-7.25V7.49C.24,3.49,3.49.24,7.49.24h9.03c4,0,7.25,3.25,7.25,7.25v9.03c0,4-3.25,7.25-7.25,7.25ZM7.49,2.07c-2.99,0-5.42,2.43-5.42,5.42v9.03c0,2.99,2.43,5.42,5.42,5.42h9.03c2.99,0,5.42-2.43,5.42-5.42V7.49c0-2.99-2.43-5.42-5.42-5.42H7.49Z"/>
    <path d="M12.07,18.66c-3.63,0-6.59-2.96-6.59-6.59s2.96-6.59,6.59-6.59,6.59,2.96,6.59,6.59-2.96,6.59-6.59,6.59ZM12.07,7.31c-2.63,0-4.76,2.14-4.76,4.76s2.14,4.76,4.76,4.76,4.76-2.14,4.76-4.76c0-2.63-2.14-4.76-4.76-4.76Z"/>
    <circle cx="18.68" cy="5.45" r="1.28"/>
  </g>
  <path id="path4" class="st1" d="M23.8,4.28c0-2.25-1.83-4.08-4.08-4.08H4.28C2.03.2.2,2.03.2,4.28v15.43c0,2.25,1.83,4.08,4.08,4.08h15.43c2.25,0,4.08-1.83,4.08-4.08V4.28ZM22.89,4.28v15.43c0,1.75-1.42,3.18-3.18,3.18H4.28c-1.75,0-3.18-1.42-3.18-3.18V4.28c0-1.75,1.42-3.18,3.18-3.18h15.43c1.75,0,3.18,1.42,3.18,3.18Z"/>
  <path id="path8" class="st1" d="M10.64,23.35v-8.62h-2.72c-.25,0-.45-.2-.45-.45v-3.18c0-.25.2-.45.45-.45h2.72v-2.72c0-2.25,1.83-4.08,4.08-4.08h4.08c.25,0,.45.2.45.45v3.18c0,.25-.2.45-.45.45h-2.27c-.75,0-1.36.61-1.36,1.36l-.04,1.36h3.67c.13,0,.26.06.34.16.09.1.13.23.11.36l-.45,3.18c-.03.22-.22.39-.45.39h-3.18v8.62h-.91v-9.08c0-.25.2-.45.45-.45h3.24l.32-2.27h-3.62c-.12,0-.24-.05-.33-.14s-.13-.21-.13-.33c0,0,.06-1.81.06-1.81,0-1.25,1.02-2.26,2.27-2.26h1.82v-2.27h-3.63c-1.75,0-3.18,1.42-3.18,3.18v3.18c0,.25-.2.45-.45.45h-2.72v2.27h2.72c.25,0,.45.2.45.45v9.08h-.91Z"/>
</svg>