<?xml version="1.0" encoding="UTF-8"?>
<svg id="Layer_1" xmlns="http://www.w3.org/2000/svg" version="1.1" viewBox="0 0 24 24">
  <!-- Generator: Adobe Illustrator 30.0.0, SVG Export Plug-In . SVG Version: 2.1.1 Build 123)  -->
  <defs>
    <style>
      .st0 {
        display: none;
      }
    </style>
  </defs>
  <g class="st0">
    <path d="M23.26,3.92c-.27-1.44-1.07-2.58-2.08-2.97C19.35.25,12,.25,12,.25,12,.25,4.65.25,2.82.95c-1.01.39-1.81,1.52-2.08,2.97C.25,6.54.25,12,.25,12c0,0,0,5.46.49,8.08.27,1.44,1.07,2.58,2.08,2.97,1.83.7,9.18.7,9.18.7,0,0,7.35,0,9.18-.7,1.01-.39,1.81-1.52,2.08-2.97.49-2.62.49-8.08.49-8.08,0,0,0-5.46-.49-8.08ZM9.65,17.04V6.96l6.11,5.04-6.11,5.04Z"/>
  </g>
  <path d="M18.67.15H5.33C2.47.15.15,2.47.15,5.33v13.35c0,2.85,2.32,5.17,5.17,5.17h13.35c2.85,0,5.17-2.32,5.17-5.17V5.33c0-2.85-2.32-5.17-5.17-5.17ZM22.63,18.67c0,2.18-1.77,3.95-3.95,3.95H5.33c-2.18,0-3.95-1.77-3.95-3.95V5.33c0-2.18,1.77-3.95,3.95-3.95h13.35c2.18,0,3.95,1.77,3.95,3.95v13.35ZM13.68,10.88l4.61-5.74c.21-.26.17-.65-.09-.86-.26-.21-.65-.17-.86.09l-4.44,5.53-4.44-5.53c-.12-.14-.29-.23-.48-.23h-3.6c-.23,0-.45.13-.55.35s-.07.46.07.65l6.41,7.99-4.61,5.74c-.21.26-.17.65.09.86.11.09.25.13.38.13.18,0,.36-.08.48-.23l4.44-5.53,4.44,5.53c.12.14.29.23.48.23h3.6c.34,0,.61-.27.61-.61,0-.16-.06-.3-.15-.41l-6.39-7.96ZM16.31,18.64L5.66,5.36h2.03l10.65,13.27h-2.03Z"/>
</svg>