<?xml version="1.0" encoding="UTF-8"?>
<svg id="Layer_1" xmlns="http://www.w3.org/2000/svg" version="1.1" viewBox="0 0 24 24">
  <!-- Generator: Adobe Illustrator 30.0.0, SVG Export Plug-In . SVG Version: 2.1.1 Build 123)  -->
  <defs>
    <style>
      .st0 {
        display: none;
      }
    </style>
  </defs>
  <g class="st0">
    <path d="M23.26,3.92c-.27-1.44-1.07-2.58-2.08-2.97C19.35.25,12,.25,12,.25,12,.25,4.65.25,2.82.95c-1.01.39-1.81,1.52-2.08,2.97C.25,6.54.25,12,.25,12c0,0,0,5.46.49,8.08.27,1.44,1.07,2.58,2.08,2.97,1.83.7,9.18.7,9.18.7,0,0,7.35,0,9.18-.7,1.01-.39,1.81-1.52,2.08-2.97.49-2.62.49-8.08.49-8.08,0,0,0-5.46-.49-8.08ZM9.65,17.04V6.96l6.11,5.04-6.11,5.04Z"/>
  </g>
  <path class="st0" d="M18.67.15H5.33C2.47.15.15,2.47.15,5.33v13.35c0,2.85,2.32,5.17,5.17,5.17h13.35c2.85,0,5.17-2.32,5.17-5.17V5.33c0-2.85-2.32-5.17-5.17-5.17ZM22.63,18.67c0,2.18-1.77,3.95-3.95,3.95H5.33c-2.18,0-3.95-1.77-3.95-3.95V5.33c0-2.18,1.77-3.95,3.95-3.95h13.35c2.18,0,3.95,1.77,3.95,3.95v13.35ZM13.68,10.88l4.61-5.74c.21-.26.17-.65-.09-.86-.26-.21-.65-.17-.86.09l-4.44,5.53-4.44-5.53c-.12-.14-.29-.23-.48-.23h-3.6c-.23,0-.45.13-.55.35s-.07.46.07.65l6.41,7.99-4.61,5.74c-.21.26-.17.65.09.86.11.09.25.13.38.13.18,0,.36-.08.48-.23l4.44-5.53,4.44,5.53c.12.14.29.23.48.23h3.6c.34,0,.61-.27.61-.61,0-.16-.06-.3-.15-.41l-6.39-7.96ZM16.31,18.64L5.66,5.36h2.03l10.65,13.27h-2.03Z"/>
  <g>
    <path d="M6.7.06c-2.28.07-3.54.16-3.88.28-.16.05-.46.21-.68.36-.32.21-.48.38-.85.86-.37.49-.49.69-.68,1.18-.35.92-.43,1.43-.53,3.61C-.08,10.12,0,18.54.24,19.83c.28,1.58.93,2.76,1.91,3.45.66.46,1,.51,5.21.66,4.73.17,12.96-.02,13.84-.31,1.26-.43,2.24-1.85,2.58-3.78.31-1.7.31-13.84,0-15.73-.29-1.81-1.29-3.29-2.52-3.75-.42-.15-1.32-.22-4.32-.31-2.27-.07-7.83-.07-10.24,0ZM16.8,2.05c1.16.04,2.53.09,3.05.12l.94.06.35.23c.55.36,1.01,1.14,1.15,1.98.11.66.24,4.81.24,7.63,0,2.98-.14,6.86-.26,7.53-.15.81-.61,1.59-1.14,1.93-.28.18-.38.2-.93.24-3.63.29-13.19.29-16.45,0-.51-.05-.61-.08-.87-.25-.33-.22-.69-.67-.89-1.12-.25-.58-.31-.97-.39-2.75-.16-3.38-.08-12.03.13-13.21.2-1.15.89-2.04,1.69-2.19.26-.04,3.11-.17,4.9-.21,1.93-.05,6.68-.03,8.49.02Z"/>
    <path d="M9.7,11.96c0,3.35.01,6.1.03,6.1s1.55-1.37,3.4-3.05l3.38-3.04-.24-.23c-.53-.49-6.51-5.88-6.54-5.88-.01,0-.02,2.74-.02,6.1Z"/>
  </g>
</svg>